<svg xmlns="http://www.w3.org/2000/svg" width="20.695" height="20" viewBox="0 0 20.695 20">
  <path id="calendar" d="M18.69,4.17H17.219V5.544a1.742,1.742,0,0,1-3.46,0V4.17H6.9V5.544A1.787,1.787,0,0,1,5.174,7.08a1.787,1.787,0,0,1-1.73-1.536V4.17H1.973A1.958,1.958,0,0,0,0,6.158V20.111A2.019,2.019,0,0,0,1.989,22.1H18.707A1.948,1.948,0,0,0,20.7,20.111V6.158A2.024,2.024,0,0,0,18.69,4.17ZM19.3,19.432l-.6.6H1.989l-.6-.6V9.7H19.3Zm-1.39-.776H15.166v-2.07h2.749Zm-4.139,0H11.027v-2.07h2.749Zm-4.123,0H6.9v-2.07H9.652Zm-4.139,0H2.765v-2.07H5.513Zm12.4-2.749H15.166v-2.07h2.749Zm-4.139,0H11.027v-2.07h2.749Zm-4.123,0H6.9v-2.07H9.652Zm-4.139,0H2.765v-2.07H5.513Zm12.4-2.765H15.166v-2.07h2.749Zm-4.139,0H11.027v-2.07h2.749Zm-4.123,0H6.9v-2.07H9.652ZM4.139,3.054a1.038,1.038,0,0,1,2.07,0V5.3a1.038,1.038,0,0,1-2.07,0Zm10.331,0a1.038,1.038,0,0,1,2.07,0V5.3a1.038,1.038,0,0,1-2.07,0Z" transform="translate(0 -2.1)" fill="#f1f2f3"/>
</svg>
