<svg xmlns="http://www.w3.org/2000/svg" width="43.646" height="30" viewBox="0 0 43.646 30">
  <path id="users" d="M30.916,51.045c-3.545.409-8.523.545-8.523.545s-4.977-.1-8.523-.545-3.341-2.693-3.341-4.33.409-3.989,4.227-5.284,3.92-2.352,3.75-3.136c-.2-.989-.375-.1-1.125-3.682-.1-.511-.75,1.568-1.432-2.045a12.913,12.913,0,0,0-.409-1.227c-.307-1.159.341-1.023.648-.955.239.034.409.068.375-.17-1.773-8.693,5.8-8.625,5.8-8.625s7.568-.068,5.83,8.591c-.034.239.136.2.375.17.273-.034.955-.2.648.955a12.911,12.911,0,0,0-.409,1.227c-.682,3.614-1.33,1.568-1.432,2.045-.784,3.614-.955,2.693-1.159,3.716-.17.784-.068,1.807,3.75,3.136s4.227,3.648,4.227,5.284C34.257,48.352,34.461,50.636,30.916,51.045Zm10.227-9.886s-3.136-.682-2.761-2.42.58.409,3.136-1.466c2.557-1.841,1.364-1.739,1.364-1.739s-1.739.239-2.284-4.568a5.379,5.379,0,0,0-4.875-5.045,5.42,5.42,0,0,0-4.875,5.045c-.477,4.841-2.25,4.6-2.25,4.6s-1.193-.136,1.364,1.739c2.557,1.841,2.8-.273,3.136,1.466.273,1.193-1.193,1.909-2.08,2.216,4.5,1.3,4.023,5.352,3.955,7.091h.75s1.636,0,3.682-.1,4.057.2,4.227-2.966A3.505,3.505,0,0,0,41.143,41.159ZM15.03,40.273c-2.966-1.023-2.9-1.773-2.761-2.386a10.945,10.945,0,0,0,.886-2.9c.068-.375.58,1.227,1.125-1.6a6.151,6.151,0,0,1,.307-.955c.239-.92-.273-.784-.511-.75-.17.034-.307.068-.273-.136,1.364-6.75-4.534-6.682-4.534-6.682s-5.9,0-4.568,6.716c.034.17-.1.136-.273.136-.239-.034-.75-.17-.511.75a6.151,6.151,0,0,1,.307.955c.545,2.83,1.057,1.227,1.125,1.6a11.619,11.619,0,0,0,.886,2.9c.136.614.034,1.4-2.932,2.42S0,43.2,0,44.466s-.17,3.068,2.591,3.375,6.92.409,6.92.409a18.24,18.24,0,0,1-.034-2.761,5.535,5.535,0,0,1,3.1-4.227A18.665,18.665,0,0,1,15.03,40.273Z" transform="translate(0.007 -21.591)" fill="#707070"/>
</svg>
