<svg xmlns="http://www.w3.org/2000/svg" width="20.497" height="20" viewBox="0 0 20.497 20">
  <path id="_8-e907-messages" data-name="8-e907-messages" d="M14.652,4.69a3.547,3.547,0,0,1,3.539,3.571v6.053c0,4.372-5.3,3.539-8.295,3.539l-.032.1L4.5,21.6l-.176-3.651-.064-.1H3.539A3.564,3.564,0,0,1,0,14.3V8.245A3.564,3.564,0,0,1,3.539,4.69ZM16.99,1.6H5.845A3.547,3.547,0,0,0,2.4,4.45a3.38,3.38,0,0,1,1.137-.176H14.652a4,4,0,0,1,3.987,3.987v6.021A3.025,3.025,0,0,0,20.5,11.224V5.139A3.513,3.513,0,0,0,16.99,1.6Z" transform="translate(0 -1.6)" fill="#f1f2f3" fill-rule="evenodd"/>
</svg>
