<svg xmlns="http://www.w3.org/2000/svg" width="21.186" height="20" viewBox="0 0 21.186 20">
  <path id="home" d="M20.977,13.6,15.793,8.412V4.934a.314.314,0,0,0-.315-.315l-.878.033a.314.314,0,0,0-.315.315V6.573L11.3,3.923a.94.94,0,0,0-1.325,0L.323,13.6a.937.937,0,0,0,1.325,1.325l8.994-9.01L19.636,14.9a.92.92,0,0,0,1.325,0A.935.935,0,0,0,20.977,13.6ZM3.686,14.938v7.752a.923.923,0,0,0,.894.944H7.942V18.582a.923.923,0,0,1,.894-.944H12.4a.913.913,0,0,1,.894.944V23.65H16.82a.913.913,0,0,0,.894-.944V14.938L10.642,7.965Z" transform="translate(-0.05 -3.65)" fill="#707070"/>
</svg>
