<svg xmlns="http://www.w3.org/2000/svg" width="28.833" height="30" viewBox="0 0 28.833 30">
  <path id="process" d="M3.581,14.371A13.543,13.543,0,0,1,17.092,2.9l-.983-.983a1.159,1.159,0,0,1,0-1.663,1.159,1.159,0,0,1,1.663,0L21.1,3.576a1.2,1.2,0,0,1,.164,1.8L17.748,8.892a1.176,1.176,0,1,1-1.663-1.663l1.944-1.944a11.163,11.163,0,0,0-7.165,1.733,11.34,11.34,0,0,0-4.964,7.7,1.183,1.183,0,0,1-1.335.983A1.2,1.2,0,0,1,3.581,14.371Zm17.4,12.411a11.206,11.206,0,0,1-9.132-.468,11.037,11.037,0,0,1-5.081-5.339l2.646.7a1.164,1.164,0,0,0,.609-2.248L5.267,18.165A1.189,1.189,0,0,0,3.792,19.2L2.574,23.761a1.164,1.164,0,0,0,2.248.609l.351-1.358a13.5,13.5,0,0,0,16.672,5.971,1.183,1.183,0,0,0-.866-2.2Zm10.35-3.021a1.144,1.144,0,0,0-1.428-.82l-1.358.351A13.5,13.5,0,0,0,25.381,5.871,1.167,1.167,0,1,0,23.93,7.7,11.149,11.149,0,0,1,28.1,15.823a10.948,10.948,0,0,1-2.084,7.072l-.7-2.646a1.144,1.144,0,0,0-1.428-.82,1.162,1.162,0,0,0-.82,1.428l1.288,4.754a1.187,1.187,0,0,0,1.639.773l4.543-1.218A1.15,1.15,0,0,0,31.329,23.761Zm-8.8-7.142a.709.709,0,0,1-.562-.468,6.33,6.33,0,0,1-.07-.843c0-.4-.047-.492.468-.749a.535.535,0,0,0,.351-.492,5.377,5.377,0,0,0-.8-1.545.464.464,0,0,0-.7-.047.694.694,0,0,1-.726.047,5.07,5.07,0,0,1-.632-.562c-.281-.281-.375-.328-.211-.866.094-.3.023-.492-.094-.585a6.475,6.475,0,0,0-1.522-.515.466.466,0,0,0-.609.445.709.709,0,0,1-.468.562,6.331,6.331,0,0,1-.843.07c-.4,0-.492.047-.749-.468a.526.526,0,0,0-.515-.351,6.2,6.2,0,0,0-1.264.585c0,.023-.023.023-.047.047-.328.211-.515.445-.258.82a.694.694,0,0,1,.047.726,6.335,6.335,0,0,1-.539.632c-.281.281-.328.375-.866.211-.375-.117-.562.023-.656.187a1.613,1.613,0,0,0-.07.187.1.1,0,0,1-.023.07h0a6.042,6.042,0,0,0-.375,1.311.438.438,0,0,0,.445.492.709.709,0,0,1,.562.468,6.331,6.331,0,0,1,.07.843c0,.4.047.492-.445.773a.571.571,0,0,0-.351.539c.047.094.07.211.117.3v.023h0a6.816,6.816,0,0,0,.632,1.147.441.441,0,0,0,.679.047.694.694,0,0,1,.726-.047,5.07,5.07,0,0,1,.632.562c.281.281.375.328.211.866a.561.561,0,0,0,.117.609A4.814,4.814,0,0,0,15.5,22.1h.094c.375.094.679.047.749-.4a.709.709,0,0,1,.468-.562s.445-.047.843-.047.492-.047.749.468a.535.535,0,0,0,.492.351,5.65,5.65,0,0,0,1.194-.585c0-.023.023-.047.07-.047.328-.211.515-.445.258-.82a.694.694,0,0,1-.047-.726s.281-.351.562-.632.328-.375.866-.211a.561.561,0,0,0,.609-.117,5.915,5.915,0,0,0,.539-1.686C22.97,16.853,22.852,16.69,22.525,16.619Zm-5.62,2.81a3.36,3.36,0,1,1,3.349-3.372A3.353,3.353,0,0,1,16.9,19.429Z" transform="translate(-2.535 0.1)" fill="#707070"/>
</svg>
