<svg xmlns="http://www.w3.org/2000/svg" width="20.001" height="20" viewBox="0 0 20.001 20">
  <path id="rocket" d="M2.939,12.81a.6.6,0,0,0,.109.672l.141.141c.422-.484.891-1.016,1.485-1.594a.652.652,0,0,1,.125-.094l-.922-.922C3.345,11.966,3.033,12.638,2.939,12.81Zm5.048,2.532c-.594.594-1.125,1.063-1.61,1.485l.188.188a.594.594,0,0,0,.688.109c.3-.156.781-.375,1.8-.938l-.969-.969A.652.652,0,0,1,7.987,15.342Zm-.313-3c-.422-.422-1.61-.047-2.172.516a15.455,15.455,0,0,0-3.094,3.985.583.583,0,0,0,.781.781,15.838,15.838,0,0,0,3.969-3.11c.609-.609.922-1.766.516-2.172ZM1.845,7.794.189,9.45a.593.593,0,0,0-.094.7.56.56,0,0,0,.656.266,4.839,4.839,0,0,1,2.219-.2,30.921,30.921,0,0,1,2.422-3.7C4.893,6.216,3.252,6.387,1.845,7.794ZM9.94,19.936a.6.6,0,0,0,.672-.109l1.656-1.656c1.281-1.281,1.516-2.938,1.219-3.469a34.458,34.458,0,0,1-3.7,2.407,7.07,7.07,0,0,1-.172,2.219A.588.588,0,0,0,9.94,19.936Zm1.7-14.065a1.757,1.757,0,1,0,2.485,0A1.754,1.754,0,0,0,11.644,5.872Zm8.345-5.3a.588.588,0,0,0-.547-.547,11.43,11.43,0,0,0-4.282.5,4.943,4.943,0,0,0,1.453,2.86A4.916,4.916,0,0,0,19.535,4.84,11.956,11.956,0,0,0,19.989.574ZM15.8,4.215A6.149,6.149,0,0,1,14.035.933C10.518,2.371,7.143,5.528,4.486,9.95l1.328,1.328a2.481,2.481,0,0,1,2.7.234A2.458,2.458,0,0,1,8.753,14.2l1.36,1.36c3.407-2.047,7.376-5.282,9.064-9.6A5.868,5.868,0,0,1,15.8,4.215Zm-.828,4.969a2.928,2.928,0,1,1,0-4.141A2.933,2.933,0,0,1,14.972,9.185Z" transform="translate(-0.02 0.005)" fill="#f1f2f3"/>
</svg>
