<svg xmlns="http://www.w3.org/2000/svg" width="18.011" height="18" viewBox="0 0 18.011 18">
  <g id="_5-e904-tv" data-name="5-e904-tv" transform="translate(0 0.025)">
    <path id="Trazado_1353" data-name="Trazado 1353" d="M15.536,4.07H10.967l2.7-2.7a.806.806,0,0,0,0-1.153.819.819,0,0,0-1.153,0L9,3.732,5.483.218a.806.806,0,0,0-1.153,0,.819.819,0,0,0,0,1.153l2.7,2.7H2.46A2.451,2.451,0,0,0,0,6.516v9a2.463,2.463,0,0,0,2.46,2.46H15.55a2.463,2.463,0,0,0,2.46-2.46v-9A2.472,2.472,0,0,0,15.536,4.07Zm.83,11.445a.816.816,0,0,1-.815.815H2.46a.816.816,0,0,1-.815-.815v-9A.816.816,0,0,1,2.46,5.7H15.55a.816.816,0,0,1,.815.815Z" fill="#f1f2f3"/>
    <rect id="Rectángulo_958" data-name="Rectángulo 958" width="12.109" height="0.807" transform="translate(2.917 7.883)" fill="#f1f2f3"/>
    <rect id="Rectángulo_959" data-name="Rectángulo 959" width="12.109" height="0.807" transform="translate(2.944 10.617)" fill="#f1f2f3"/>
    <rect id="Rectángulo_960" data-name="Rectángulo 960" width="12.109" height="0.807" transform="translate(2.917 13.364)" fill="#f1f2f3"/>
  </g>
</svg>
