<svg id="_6-e905-rooms" data-name="6-e905-rooms" xmlns="http://www.w3.org/2000/svg" width="20.513" height="20" viewBox="0 0 20.513 20">
  <path id="Trazado_1354" data-name="Trazado 1354" d="M14.664,20.9H3.542A3.567,3.567,0,0,0,0,24.458v6.058a3.543,3.543,0,0,0,3.542,3.542h.721l.064.1L4.5,37.807l5.369-3.654.032-.1c3,0,8.3.833,8.3-3.542V24.458A3.546,3.546,0,0,0,14.664,20.9Zm-10.3,9.167c-.673-.08-.641-.513-.641-.833a.982.982,0,0,1,.817-1.01c.737-.24.753-.449.721-.593a2.576,2.576,0,0,1-.224-.721c-.016-.1-.144.3-.272-.4a2.106,2.106,0,0,0-.08-.24c-.064-.224.064-.192.128-.192.048,0,.08.016.064-.032-.321-1.651,1.122-1.651,1.122-1.651s1.458-.016,1.122,1.651c-.016.048.032.048.064.032.064-.016.192-.048.128.192a1.41,1.41,0,0,0-.08.24c-.128.689-.256.3-.272.4a2.869,2.869,0,0,1-.224.721c-.032.144-.048.337.673.593,0,0-.337.112-.609.24a1.38,1.38,0,0,0-.769,1.042,3.255,3.255,0,0,0,.016.673S5.048,30.147,4.359,30.067Zm6.987.785c-.865.1-2.1.128-2.1.128s-1.234-.016-2.1-.128-.817-.657-.817-1.074.1-.978,1.042-1.3.962-.577.929-.769a3.722,3.722,0,0,1-.272-.913c-.032-.128-.192.385-.353-.5-.032-.128-.064-.16-.1-.3-.08-.288.08-.256.16-.24.064.016.1.016.1-.048C7.4,23.56,9.263,23.576,9.263,23.576s1.859-.016,1.442,2.115c-.016.064.032.048.1.048.064-.016.24-.048.16.24a1.321,1.321,0,0,0-.1.3c-.16.9-.321.385-.353.5a4.081,4.081,0,0,1-.288.913c-.048.192-.016.449.929.769a1.269,1.269,0,0,1,1.042,1.3C12.164,30.195,12.212,30.756,11.346,30.852Zm3.125-1.474c-.048.785-.545.705-1.042.737s-.913.032-.913.032h-.192a1.459,1.459,0,0,0-.978-1.747c.224-.08.577-.256.513-.545-.08-.433-.144.1-.769-.369s-.337-.433-.337-.433.433.064.561-1.138a1.349,1.349,0,0,1,1.2-1.25,1.33,1.33,0,0,1,1.2,1.25c.128,1.186.561,1.122.561,1.122s.288-.032-.337.433-.673-.064-.769.369.673.593.673.593A.853.853,0,0,1,14.471,29.378Z" transform="translate(0 -17.807)" fill="#707070"/>
  <path id="Trazado_1355" data-name="Trazado 1355" d="M29.6,1.6H18.446A3.549,3.549,0,0,0,15,4.453a3.382,3.382,0,0,1,1.138-.176H27.26a4,4,0,0,1,3.99,3.99v6.026a3.027,3.027,0,0,0,1.859-3.061V5.142A3.516,3.516,0,0,0,29.6,1.6Z" transform="translate(-12.596 -1.6)" fill="#707070"/>
</svg>
