<svg id="Grupo_3257" data-name="Grupo 3257" xmlns="http://www.w3.org/2000/svg" width="122.168" height="128" viewBox="0 0 122.168 128">
  <g id="Grupo_3249" data-name="Grupo 3249" transform="translate(9.359 16.755)">
    <path id="Trazado_1450" data-name="Trazado 1450" d="M64.705,117.021c-23.01,0-41.735-21.156-41.735-47.154S41.683,22.7,64.705,22.7s41.735,21.156,41.735,47.154S87.716,117.021,64.705,117.021Zm0-93.313c-22.522,0-40.843,20.7-40.843,46.145S42.183,116,64.705,116s40.843-20.7,40.843-46.145S87.228,23.709,64.705,23.709Z" transform="translate(-22.97 -22.7)" fill="#727271"/>
  </g>
  <path id="Trazado_1451" data-name="Trazado 1451" d="M43.293,37.411a9.761,9.761,0,1,1-9.761-9.761A9.759,9.759,0,0,1,43.293,37.411Z" transform="translate(-13.463 -2.727)" fill="#727271" fill-rule="evenodd"/>
  <path id="Trazado_1452" data-name="Trazado 1452" d="M98.7,63.116A5.916,5.916,0,1,1,92.786,57.2,5.916,5.916,0,0,1,98.7,63.116Z" transform="translate(8.24 6.015)" fill="#343434" fill-rule="evenodd"/>
  <path id="Trazado_1453" data-name="Trazado 1453" d="M27.938,53.688a4.244,4.244,0,1,1-4.25-4.238A4.235,4.235,0,0,1,27.938,53.688Z" transform="translate(-14.284 3.538)" fill="#727271" fill-rule="evenodd"/>
  <path id="Trazado_1454" data-name="Trazado 1454" d="M132.7,49.094A63.832,63.832,0,0,0,98.276,13.921a64.744,64.744,0,0,0-49.444-.761,66.565,66.565,0,0,0-9.066,4.387l.417.864c.664-.245,1.263-.439,1.8-.606.391-.129.742-.245,1.094-.374,1.446-.7,2.892-1.329,4.285-1.871C79,3.147,114.922,18.553,127.452,49.881s-3.022,66.927-34.647,79.339a61.952,61.952,0,0,1-68.1-15.367l4-3.458-13.6-5.651L19.317,118.5l4.494-3.884a65.415,65.415,0,0,0,49.027,22.012,64.532,64.532,0,0,0,59.1-38.554A63.028,63.028,0,0,0,132.7,49.094Z" transform="translate(-15.11 -8.627)" fill="#ec6815" fill-rule="evenodd"/>
  <path id="Trazado_1463" data-name="Trazado 1463" d="M101.915,97.607A12.487,12.487,0,1,1,89.427,85.12,12.485,12.485,0,0,1,101.915,97.607Z" transform="translate(6.437 15.846)" fill="#727271" fill-rule="evenodd"/>
</svg>
